<svg xmlns="http://www.w3.org/2000/svg" xmlns:xlink="http://www.w3.org/1999/xlink" viewBox="0 0 512 512"><defs><linearGradient id="a" x1="306.34" x2="433.59" y1="366.03" y2="366.03" gradientUnits="userSpaceOnUse"><stop offset="0" stop-color="#cacfdd"/><stop offset="1" stop-color="#eef0f1"/></linearGradient><linearGradient id="b" x1="55.08" x2="227.13" y1="362.42" y2="362.42" xlink:href="#a"/><linearGradient id="c" x1="227.13" x2="295.95" y1="319.38" y2="319.38" xlink:href="#a"/></defs><g data-name="Warning Danger"><path fill="#f5f5f5" d="M433.59,400.59a24.34,24.34,0,0,1-34.41,0,24.33,24.33,0,0,0-34.41,0,24.34,24.34,0,0,1-34.41,0,24.33,24.33,0,0,0-34.41,0,24.34,24.34,0,0,1-34.41,0,24.33,24.33,0,0,0-34.41,0,24.34,24.34,0,0,1-34.41,0,24.33,24.33,0,0,0-34.41,0,24.34,24.34,0,0,1-34.41,0,24.33,24.33,0,0,0-34.41,0,24.34,24.34,0,0,1-34.41,0c-.1-.1,0,4.66,0-130.14a24.34,24.34,0,0,0,34.41,0,24.33,24.33,0,0,1,34.41,0,24.34,24.34,0,0,0,34.41,0,24.33,24.33,0,0,1,34.41,0,24.34,24.34,0,0,0,34.41,0,24.33,24.33,0,0,1,34.41,0,24.34,24.34,0,0,0,34.41,0,24.33,24.33,0,0,1,34.41,0,24.34,24.34,0,0,0,34.41,0,24.33,24.33,0,0,1,34.41,0,24.34,24.34,0,0,0,34.41,0C433.69,270.35,433.59,268.78,433.59,400.59Z"/><path d="M433.59,337.52v63.07a24.34,24.34,0,0,1-34.41,0,24.31,24.31,0,0,0-34.41,0,24.35,24.35,0,0,1-34.42,0,24.28,24.28,0,0,0-24-6.16,83.35,83.35,0,0,1,127.25-56.91Z" style="mix-blend-mode:multiply" fill="url(#a)"/><path d="M227.13,371a24.33,24.33,0,0,1-34.41,0,24.34,24.34,0,0,0-34.41,0,24.33,24.33,0,0,1-34.41,0,24.34,24.34,0,0,0-34.41,0,24.33,24.33,0,0,1-34.41,0V353.87a24.34,24.34,0,0,0,34.41,0,24.33,24.33,0,0,1,34.41,0,24.34,24.34,0,0,0,34.41,0,24.33,24.33,0,0,1,34.41,0,24.34,24.34,0,0,0,34.41,0Z" style="mix-blend-mode:multiply" fill="url(#b)"/><path d="M296,328.39a24.33,24.33,0,0,1-34.41,0,24.33,24.33,0,0,0-34.41,0v-18a24.34,24.34,0,0,1,34.41,0,24.33,24.33,0,0,0,34.41,0Z" style="mix-blend-mode:multiply" fill="url(#c)"/><path fill="#5e6175" d="M190.6 272.57a21.32 21.32 0 00-30.17 0 27.37 27.37 0 01-38.65 0 21.32 21.32 0 00-30.17 0 27.37 27.37 0 01-38.66 0l4.25-4.24a21.37 21.37 0 0030.17 0 27.3 27.3 0 0138.65 0 21.37 21.37 0 0030.17 0 27.31 27.31 0 0138.65 0 21.37 21.37 0 0030.17 0 27.3 27.3 0 0138.65 0 21.37 21.37 0 0030.17 0 27.3 27.3 0 0138.65 0 21.37 21.37 0 0030.17 0 27.3 27.3 0 0138.65 0 21.34 21.34 0 0030.17 0l4.24 4.24a27.37 27.37 0 01-38.65 0 21.32 21.32 0 00-30.17 0 27.36 27.36 0 01-38.65 0 21.32 21.32 0 00-30.17 0 27.37 27.37 0 01-38.65 0 21.32 21.32 0 00-30.17 0A27.32 27.32 0 01190.6 272.57zM259.42 402.71a21.35 21.35 0 00-30.17 0 27.32 27.32 0 01-38.65 0 21.35 21.35 0 00-30.17 0 27.32 27.32 0 01-38.65 0 21.32 21.32 0 00-30.17 0 27.38 27.38 0 01-38.66 0l4.25-4.24a21.37 21.37 0 0030.17 0 27.31 27.31 0 0138.65 0 21.33 21.33 0 0030.17 0 27.36 27.36 0 0138.65 0 21.33 21.33 0 0030.17 0 27.31 27.31 0 0138.65 0 21.33 21.33 0 0030.17 0 27.31 27.31 0 0138.65 0 21.36 21.36 0 0030.17 0 27.31 27.31 0 0138.65 0 21.33 21.33 0 0030.17 0l4.24 4.24a27.37 27.37 0 01-38.65 0 21.32 21.32 0 00-30.17 0 27.37 27.37 0 01-38.65 0 21.32 21.32 0 00-30.17 0A27.32 27.32 0 01259.42 402.71zM121.78 356a21.32 21.32 0 00-30.17 0A27.37 27.37 0 0153 356l4.25-4.24a21.37 21.37 0 0030.17 0 27.31 27.31 0 0138.65 0 21.34 21.34 0 0030.17 0 27.35 27.35 0 0138.65 0 21.34 21.34 0 0030.17 0l4.24 4.24a27.35 27.35 0 01-38.65 0 21.35 21.35 0 00-30.17 0A27.32 27.32 0 01121.78 356zM259.42 312.49a21.32 21.32 0 00-30.17 0L225 308.24a27.32 27.32 0 0138.65 0 21.32 21.32 0 0030.17 0l4.24 4.25A27.37 27.37 0 01259.42 312.49z"/><path fill="#5e6175" d="M209.93,280.57a27.15,27.15,0,0,1-19.34-8,21.34,21.34,0,0,0-30.17,0,27.3,27.3,0,0,1-38.64,0,21.32,21.32,0,0,0-10.06-5.65l-2.55-.61c5.78-56.14,34-102.25,84.37-126a7,7,0,0,1,9.39,9.16c-9.34,21.32-27,76.3,10.36,126.34l3.46,4.63C210.12,280.57,210.33,280.57,209.93,280.57Zm-94.24-18.73A27.34,27.34,0,0,1,126,268.33a21.32,21.32,0,0,0,30.16,0,27.32,27.32,0,0,1,38.66,0,21.2,21.2,0,0,0,9.8,5.59c-40.74-60.85-7.12-125.69-7.12-127.31a1,1,0,0,0-1.43-.92C133.15,175.4,118.89,235,115.69,261.84Z"/><path fill="#5e6175" d="M210.89,277.55a24.22,24.22,0,0,1-18.17-7.1,24.35,24.35,0,0,0-34.42,0,24.32,24.32,0,0,1-34.4,0A24.15,24.15,0,0,0,112.43,264c2.83-27.53,16.59-90,82.39-121a4,4,0,0,1,5.36,5.25C190.55,170.21,172.58,226.29,210.89,277.55Z"/><path fill="#f5f5f5" d="M319.61,43.32l48.8,84.53a14.64,14.64,0,0,1-12.69,22h-97.6a14.64,14.64,0,0,1-12.68-22l48.8-84.53A14.65,14.65,0,0,1,319.61,43.32Z"/><path fill="#5e6175" d="M258.12,152.81a17.63,17.63,0,0,1-15.27-26.46l48.8-84.53a17.64,17.64,0,0,1,30.56,0L371,126.35a17.63,17.63,0,0,1-15.28,26.46Zm38.72-108L248,129.35a11.64,11.64,0,0,0,10.08,17.46h97.6a11.64,11.64,0,0,0,10.09-17.46L317,44.82A11.64,11.64,0,0,0,296.84,44.82Z"/><polygon fill="#e1830e" points="297.34 66.17 297.34 92.74 300.33 109.33 306.91 109.33 306.91 109.34 313.5 109.33 316.5 92.72 316.51 66.14 297.34 66.17"/><rect width="14.39" height="14.39" x="299.72" y="121.17" fill="#e1830e"/><path fill="#a9afc4" d="M368.56,213.09h-6v-6h6Zm-16,0h-6v-6h6Zm-16,0h-6v-6h6Zm-16,0h-6v-6h6Zm-16,0h-6v-6h6Zm-16,0h-6v-6h6Zm-16,0h-6v-6h6Zm-16,0h-6v-6h6Zm-16,0h-6v-6h6Zm-16,0h-6v-6h6ZM378.77,213l-.42-6a45.16,45.16,0,0,0,5.57-.74l1.16,5.89A53.14,53.14,0,0,1,378.77,213Zm16.44-4-2.34-5.52a47.15,47.15,0,0,0,5-2.51l3,5.18A49.68,49.68,0,0,1,395.21,209Zm14.27-9.08-4-4.46a46.72,46.72,0,0,0,3.95-4l4.53,3.94A51.66,51.66,0,0,1,409.48,199.92Zm10.57-13.19-5.23-2.93a43.58,43.58,0,0,0,2.44-5.06l5.56,2.26A50.37,50.37,0,0,1,420.05,186.73Zm5.73-15.9-5.9-1.08a43.35,43.35,0,0,0,.66-5.58l6,.34A51.66,51.66,0,0,1,425.78,170.83Zm.84-16.49h-6v-6h6Zm-6-16a45.73,45.73,0,0,0-.38-5.62l6-.77a53.74,53.74,0,0,1,.42,6.35Zm-2.52-14.73a46.12,46.12,0,0,0-2.18-5.18l5.38-2.67a50.35,50.35,0,0,1,2.46,5.88Zm-7.17-13.11a46.54,46.54,0,0,0-3.74-4.2l4.23-4.26a54.48,54.48,0,0,1,4.23,4.76Zm-11-10.09A46.25,46.25,0,0,0,395,97.65l2.63-5.39a53,53,0,0,1,5.54,3.14Zm-13.68-6a46.83,46.83,0,0,0-5.53-1l.73-6a50.73,50.73,0,0,1,6.26,1.16Z"/><rect width="6" height="17.89" x="107.27" y="156.46" fill="#5e6175" transform="rotate(-45 110.26 165.399)"/><rect width="17.89" height="6" x="89.33" y="183.47" fill="#5e6175"/><rect width="6" height="17.89" x="127.26" y="143.98" fill="#5e6175"/><circle cx="388.64" cy="407.71" r="68.29" fill="#f5f5f5"/><path fill="#5e6175" d="M388.64,479a71.29,71.29,0,1,1,71.28-71.29A71.37,71.37,0,0,1,388.64,479Zm0-136.57a65.29,65.29,0,1,0,65.28,65.28A65.36,65.36,0,0,0,388.64,342.43Z"/><path fill="#e08326" d="M388.64,452a44.3,44.3,0,1,1,44.29-44.3A44.34,44.34,0,0,1,388.64,452Zm-14.91-18.13,1.23.63a29.72,29.72,0,0,0,13.68,3.3c22.55,0,37-24,26.78-43.78l-.63-1.22Zm14.91-56.26a30.12,30.12,0,0,0-26.8,43.78l.63,1.23,41.07-41.07-1.22-.63A30,30,0,0,0,388.64,377.62Z"/><path fill="#5e6175" d="M303.89 461.32a8.51 8.51 0 118.51-8.51A8.51 8.51 0 01303.89 461.32zm0-11a2.51 2.51 0 102.51 2.51A2.51 2.51 0 00303.89 450.3zM263.05 442a10.74 10.74 0 117.6-18.33A10.73 10.73 0 01263.05 442zm0-15.47a4.73 4.73 0 104.73 4.73A4.74 4.74 0 00263.06 426.48z"/></g></svg>