<svg xmlns="http://www.w3.org/2000/svg" enable-background="new 0 0 512 512" viewBox="0 0 512 512"><circle cx="259.5" cy="187.1" r="111.4" fill="#dee1ec" transform="rotate(-45.001 259.463 187.146)"/><circle cx="259.5" cy="187.1" r="90.8" fill="#f5f5f5" transform="rotate(-45.001 259.463 187.146)"/><linearGradient id="a" x1="225.05" x2="266.87" y1="351.525" y2="351.525" gradientTransform="matrix(1 0 0 -1 0 511.89)" gradientUnits="userSpaceOnUse"><stop offset="0" stop-color="#cacfdd"/><stop offset="1" stop-color="#eef0f1"/></linearGradient><path fill="url(#a)" d="M266.9,182.7c-2.4-4.1-7.7-5.4-11.8-3c-4.1,2.4-5.4,7.7-3,11.8c-13.2-22.3-17.7-36.6-27-62.1l0.4-0.2
			C242.9,149.2,253.6,160.3,266.9,182.7z"/><path fill="#5e6175" d="M161.1,245.4c-32.2-54.3-14.3-124.5,40.1-156.7s124.5-14.3,156.7,40.1s14.3,124.5-40.1,156.7c0,0,0,0,0,0
			c-54.3,32.2-124.4,14.3-156.6-40C161.1,245.5,161.1,245.5,161.1,245.4z M259.3,78.7c-59.9,0.1-108.4,48.7-108.3,108.5
			s48.7,108.4,108.5,108.3c59.9-0.1,108.4-48.7,108.3-108.5c0-19.4-5.2-38.4-15.1-55.1l0,0C333.1,98.9,297.6,78.7,259.3,78.7z"/><path fill="#f5f5f5" d="M199.7,64.8l12.6,21.4c-6.6,3.1-12.9,6.8-18.8,11.2L180.9,76L199.7,64.8z"/><path fill="#5e6175" d="M192.6,101.7L176.8,75l24-14.2l15.9,26.8C207.4,91.9,203.2,94,192.6,101.7z M185,77.1l9.5,16
			c4.4-3,8.9-5.7,13.7-8.1l-9.5-16L185,77.1z"/><path fill="#5e6175" d="M206.2,61l-31.9,18.9c-2.9,1.6-6.4,0.5-8-2.3c-1.5-2.7-0.6-6.1,2-7.8l31.9-18.9c2.8-1.7,6.4-0.7,8.1,2.1
			C210,55.7,209,59.3,206.2,61C206.2,61,206.2,61,206.2,61z"/><path fill="#5e6175" d="M163.7 79.3c-2.5-4.2-1.1-9.7 3.1-12.2 0 0 0 0 0 0l31.9-18.9c4.2-2.5 9.7-1.1 12.2 3.1s1.1 9.7-3.1 12.2l0 0-31.9 18.9C171.7 85 166.2 83.6 163.7 79.3 163.7 79.4 163.7 79.4 163.7 79.3zM203.2 53c-.5 0-1 .1-1.5.4l-31.9 18.9c-1.4.8-1.8 2.6-1 4 .8 1.4 2.6 1.8 4 1l31.9-18.9c1.4-.8 1.9-2.5 1.1-3.9C205.3 53.5 204.3 53 203.2 53zM243.2 79.9l-.5-15c-.2-5.3 3.9-9.7 9.2-9.9 0 0 0 0 0 0l7.9-.3c5.3-.2 9.7 3.9 9.9 9.2 0 0 0 0 0 0l.5 15.3C257.5 78.4 253.3 78.7 243.2 79.9zM260.1 60.7l-8 .3c-1.9.1-3.5 1.7-3.4 3.6 0 0 0 0 0 0l.3 8.6c5-.4 10-.6 15-.4l-.3-8.7C263.7 62.2 262.1 60.7 260.1 60.7z"/><path fill="#5e6175" d="M266.6 64l.4 12c-7-.5-14-.3-21 .5l-.4-11.8c-.1-3.6 2.7-6.6 6.3-6.8 0 0 0 0 .1 0l7.9-.3C263.5 57.6 266.5 60.4 266.6 64zM159.7 144.8l-13.2-7.8c-4.5-2.7-6-8.5-3.3-13.1l4-6.8c2.7-4.5 8.5-6 13.1-3.3l12.9 7.7C167.4 129.5 165 133.2 159.7 144.8zM152.4 120.1l-4 6.8c-1 1.7-.4 3.8 1.2 4.8l7.5 4.4c2.2-4.5 4.7-8.8 7.5-12.9l-7.4-4.4C155.6 117.9 153.4 118.4 152.4 120.1 152.4 120.1 152.4 120.1 152.4 120.1z"/><path fill="#5e6175" d="M168.9,122.3c-4.1,5.7-7.6,11.8-10.5,18.1l-10.3-6.1c-3.1-1.8-4.1-5.8-2.3-8.9c0,0,0,0,0,0l4-6.8
			c1.8-3.1,5.8-4.1,8.9-2.3c0,0,0,0,0.1,0L168.9,122.3z"/><rect width="6" height="11.2" x="213" y="108.2" fill="#5e6175" transform="rotate(-30.65 216.014 113.858)"/><rect width="6" height="11.2" x="213" y="108.2" fill="#5e6175" transform="rotate(-30.65 216.014 113.858)"/><rect width="6" height="11.2" x="299.9" y="254.8" fill="#5e6175" transform="rotate(-30.65 302.884 260.432)"/><rect width="11.2" height="6" x="327.1" y="140.7" fill="#5e6175" transform="rotate(-30.65 332.748 143.707)"/><rect width="11.2" height="6" x="327.1" y="140.7" fill="#5e6175" transform="rotate(-30.65 332.748 143.707)"/><rect width="11.2" height="6" x="180.6" y="227.6" fill="#5e6175" transform="rotate(-30.65 186.174 230.566)"/><rect width="11.2" height="6" x="274.9" y="101.6" fill="#5e6175" transform="rotate(-75.658 280.57 104.59)"/><rect width="11.2" height="6" x="274.9" y="101.6" fill="#5e6175" transform="rotate(-75.658 280.57 104.59)"/><rect width="11.2" height="6" x="232.7" y="266.6" fill="#5e6175" transform="rotate(-75.658 238.35 269.658)"/><rect width="6" height="11.2" x="339" y="202.6" fill="#5e6175" transform="rotate(-75.653 341.992 208.267)"/><rect width="6" height="11.2" x="339" y="202.6" fill="#5e6175" transform="rotate(-75.653 341.992 208.267)"/><rect width="6" height="11.2" x="173.9" y="160.4" fill="#5e6175" transform="rotate(-75.653 176.91 166.038)"/><path fill="#5e6175" d="M249.5,193.1c-13.6-22.9-18.2-37.8-28.1-65l4.6-2.7c18.5,21.1,29.9,32.8,43.5,55.9l0,0l-5.2,3.1
			c-1.6-2.7-5-3.5-7.7-2s-3.5,5-2,7.7L249.5,193.1z M233,142.4c4.5,12.3,8.2,22.9,16.6,38.6c2-3.3,5.5-5.3,9.3-5.5
			C249.1,160.5,241,151.6,233,142.4z"/><path fill="#e1830e" d="M253.6,177.2c-5.5,3.3-7.3,10.4-4.1,15.9c3.3,5.5,10.4,7.3,15.9,4.1c2.6-1.6,4.5-4.1,5.3-7.1
			c1.6-6.2-2.2-12.5-8.3-14.1C259.4,175.2,256.2,175.6,253.6,177.2z"/><linearGradient id="b" x1="378.25" x2="378.25" y1="260.77" y2="114.78" gradientTransform="matrix(1 0 0 -1 0 511.89)" gradientUnits="userSpaceOnUse"><stop offset="0" stop-color="#cacfdd"/><stop offset="1" stop-color="#eef0f1"/></linearGradient><rect width="121.3" height="176.3" x="317.6" y="219.2" fill="url(#b)"/><linearGradient id="c" x1="378.25" x2="378.25" y1="260.77" y2="114.79" gradientTransform="matrix(1 0 0 -1 0 511.89)" gradientUnits="userSpaceOnUse"><stop offset="0" stop-color="#a9afc4"/><stop offset="1" stop-color="#d4d8e5"/></linearGradient><rect width="121.3" height="176.3" x="317.6" y="219.2" fill="url(#c)"/><linearGradient id="d" x1="342.13" x2="438.88" y1="149.586" y2="149.586" gradientTransform="matrix(1 0 0 -1 0 511.89)" gradientUnits="userSpaceOnUse"><stop offset="0" stop-color="#cacfdd"/><stop offset="1" stop-color="#eef0f1"/></linearGradient><path fill="url(#d)" d="M438.9,332.6v62.9h-96.8C347.1,348.9,394,318.2,438.9,332.6z"/><linearGradient id="e" x1="196.365" x2="196.365" y1="248.51" y2="117.2" gradientTransform="matrix(1 0 0 -1 0 511.89)" gradientUnits="userSpaceOnUse"><stop offset="0" stop-color="#cacfdd"/><stop offset="1" stop-color="#eef0f1"/></linearGradient><rect width="242.5" height="176.3" x="75.1" y="219.2" fill="url(#e)"/><linearGradient id="f" x1="74.94" x2="317.62" y1="258.36" y2="258.36" gradientTransform="matrix(1 0 0 -1 0 511.89)" gradientUnits="userSpaceOnUse"><stop offset="0" stop-color="#a9afc4"/><stop offset="1" stop-color="#d4d8e5"/></linearGradient><polygon fill="url(#f)" points="317.6 219.2 317.6 261.1 299.3 287.8 74.9 287.8 74.9 261.1 284.2 261.1"/><linearGradient id="g" x1="317.62" x2="438.88" y1="258.36" y2="258.36" gradientTransform="matrix(1 0 0 -1 0 511.89)" gradientUnits="userSpaceOnUse"><stop offset="0" stop-color="#cacfdd"/><stop offset="1" stop-color="#eef0f1"/></linearGradient><polygon fill="url(#g)" points="317.6 264.2 317.6 219.2 351 261.1 438.9 261.1 438.9 287.8 336.5 287.8"/><path fill="#5e6175" d="M320.6,398.6H72.1V216.2h248.5V398.6z M78.1,392.6h236.5V222.2H78.1V392.6z"/><path fill="#5e6175" d="M441.9,398.6H314.6V216.2h127.3V398.6z M320.6,392.6h115.3V222.2H320.6V392.6z"/><rect width="50.1" height="18.3" x="100.2" y="357.6" fill="#e1830e"/><polygon fill="#f5f5f5" points="284.2 261.1 37.7 261.1 72.1 219.2 317.6 219.2"/><path fill="#5e6175" d="M285.6,264.1H31.3l39.4-47.9h253.2L285.6,264.1z M44,258.1h238.7l28.6-35.9H73.5L44,258.1z"/><polygon fill="#f5f5f5" points="351 261.1 475.3 261.1 441.9 219.2 317.6 219.2"/><path fill="#5e6175" d="M481.5,264.1H349.6l-38.2-47.9h131.9L481.5,264.1z M352.5,258.1h116.5l-28.6-35.9H323.9L352.5,258.1z"/><circle cx="416.1" cy="402.1" r="59.9" fill="#f5f5f5"/><path fill="#5e6175" d="M416.1,465c-34.7,0-62.9-28.1-62.9-62.9s28.1-62.9,62.9-62.9c34.7,0,62.9,28.1,62.9,62.8
			C479,436.8,450.8,465,416.1,465z M416.1,345.3c-31.4,0-56.9,25.5-56.9,56.9s25.5,56.9,56.9,56.9s56.9-25.5,56.9-56.9c0,0,0,0,0,0
			C473,370.7,447.5,345.3,416.1,345.3L416.1,345.3z"/><path fill="#e1830e" d="M446.5,371.9h-31.3l-36.6,36.6l31.3,31.3l36.6-36.6L446.5,371.9z M429.6,388.8c-2.1-2.1-2.1-5.5,0-7.6
			c2.1-2.1,5.5-2.1,7.6,0s2.1,5.5,0,7.6c0,0,0,0,0,0C435.1,390.9,431.7,390.9,429.6,388.8C429.6,388.8,429.6,388.8,429.6,388.8z"/><rect width="3" height="6" x="342" y="406.3" fill="#a9afc4"/><path fill="#a9afc4" d="M331 412.3h-6.6v-6h6.6V412.3zM313.4 412.3h-6.6v-6h6.6V412.3zM295.9 412.3h-6.6v-6h6.6V412.3zM278.3 412.3h-6.6v-6h6.6V412.3zM260.8 412.3h-6.6v-6h6.6V412.3z"/><rect width="6" height="6" x="237.2" y="406.3" fill="#a9afc4"/><path fill="#a9afc4" d="M243.2 394.3h-6v-7.2h6V394.3zM243.2 375h-6v-7.2h6V375zM243.2 355.8h-6v-7.2h6V355.8zM243.2 336.5h-6v-7.2h6V336.5zM243.2 317.3h-6V310h6V317.3z"/><rect width="6" height="3" x="237.2" y="295" fill="#a9afc4"/><rect width="19.4" height="6" x="49.5" y="409.9" fill="#5e6175" transform="rotate(-45.001 59.209 412.93)"/><rect width="6" height="19.4" x="79" y="416.2" fill="#5e6175"/><rect width="19.4" height="6" x="36" y="388.3" fill="#5e6175"/><path fill="#e1830e" d="M369 104.5c14.3 0 25.9 11.6 25.9 25.9 0-14.3 11.6-25.9 25.9-25.9-14.3 0-25.9-11.6-25.9-25.9 0 7.2-3 13.8-7.8 18.5C382.5 101.7 376.1 104.5 369 104.5zM408.6 165.8c3.4 0 6.5 1.4 8.7 3.6 2.2 2.2 3.6 5.3 3.6 8.7 0-6.8 5.5-12.3 12.3-12.3-6.8 0-12.3-5.5-12.3-12.3C420.9 160.3 415.4 165.8 408.6 165.8zM95.9 187.1c7.1 0 12.8 5.7 12.8 12.8 0-7.1 5.7-12.8 12.8-12.8-4.2 0-8-2-10.3-5.2-1.6-2.1-2.5-4.8-2.5-7.6C108.7 181.4 102.9 187.1 95.9 187.1z"/></svg>