<svg xmlns="http://www.w3.org/2000/svg" xmlns:xlink="http://www.w3.org/1999/xlink" viewBox="0 0 512 512"><defs><linearGradient id="a" x1="258.12" x2="258.12" y1="258.18" y2="384.02" gradientUnits="userSpaceOnUse"><stop offset="0" stop-color="#cacfdd"/><stop offset="1" stop-color="#eef0f1"/></linearGradient><linearGradient id="b" x1="257.67" x2="268.1" y1="99.42" y2="99.42" gradientTransform="translate(129.24 23.4)" xlink:href="#a"/><linearGradient id="c" x1="239.47" x2="318.7" y1="385.66" y2="385.66" xlink:href="#a"/><linearGradient id="d" x1="79.75" x2="119.36" y1="382.17" y2="382.17" xlink:href="#a"/></defs><g style="isolation:isolate"><path fill="#f5f5f5" d="M403,280.89,332.82,189H59c-8.13,39-7.35,64.52-7.35,91.92Z"/><polygon fill="url(#a)" points="409.91 361.5 476 280.89 40.25 280.89 40.25 305.58 83.52 361.5 409.91 361.5"/><path fill="#5e6175" d="M411.33,364.5H82L37.25,306.61V277.89H482.34ZM85,358.5h323.5l61.17-74.61H43.25v20.67Z"/><polygon fill="#dee1ec" points="76.42 136.8 76.42 188.97 138.69 188.97 106.47 136.8 76.42 136.8"/><polygon fill="#dee1ec" points="253.78 188.97 211.5 188.97 211.5 144.8 231.79 144.8 253.78 188.97"/><path fill="#5e6175" d="M144.07 192H73.42V133.8h34.73zm-64.65-6h53.9L104.8 139.8H79.42zM258.62 192H208.5V141.8h25.14zm-44.12-6h34.43l-19-38.17H214.5z"/><path fill="#e1830e" d="M347.4 208.07H285.83a10.75 10.75 0 000 21.49h78zM373.68 242.44H285.83a10.75 10.75 0 000 21.49H390.1zM250.57 218.81a5.38 5.38 0 01-5.37 5.38H81.09a5.38 5.38 0 010-10.75H245.2A5.36 5.36 0 01250.57 218.81zM250.57 253.32a5.38 5.38 0 01-5.37 5.37l-167.61-.07a5.34 5.34 0 010-10.68H245.2A5.37 5.37 0 01250.57 253.32z"/><path fill="#5e6175" d="M409.08,283.89H48.68c0-33.34-.91-55.54,7.91-97.92H334.3Zm-354.4-6H397L331.34,192H61.48C54.1,228.34,54.68,253.17,54.68,277.89Z"/><rect width="21.32" height="21.52" x="76.42" y="152.71" fill="#5e6175"/><rect width="59.44" height="12.21" x="197.63" y="160.46" fill="#e1830e" rx="5.86"/><path fill="#a9afc4" d="M401.15,249.44l-3.64-4.77,4.76-3.64,3.65,4.76Zm-9.72-12.71L387.79,232l4.76-3.64,3.65,4.76ZM381.71,224l-3.64-4.77,4.76-3.64,3.65,4.76ZM372,211.31l-3.64-4.77,4.77-3.65,3.64,4.77Zm-9.72-12.71-3.64-4.77,4.77-3.65L367,195Zm-9.71-12.71c-2.39-3.12-2.7-3.57-3.56-4.53l4.46-4c1.08,1.2,1.56,1.89,3.86,4.89ZM342,175.94a24.89,24.89,0,0,0-5-1.92l1.54-5.8a30.6,30.6,0,0,1,6.19,2.39Zm-14.13-2.75h-6v-6h6Zm-16,0h-6v-6h6Z"/><path fill="#f5f5f5" d="M429.86,122.69a28.47,28.47,0,0,0-34.94-31.06,37.9,37.9,0,0,0-70.31,10.61,22.46,22.46,0,0,0-27.05,20.45Z"/><path fill="#5e6175" d="M432.53,125.69H294.35l.22-3.21a25.51,25.51,0,0,1,27.77-23.61,40.9,40.9,0,0,1,74.08-10.61,31.51,31.51,0,0,1,36.65,31.05A49.48,49.48,0,0,1,432.53,125.69Zm-131.49-6h126a25.51,25.51,0,0,0-31.45-25.15l-2.22.54-1.11-2a34.89,34.89,0,0,0-64.74,9.76l-.61,3-2.95-.63A19.5,19.5,0,0,0,301,119.69Z"/><path d="M394.37,120.76a36.37,36.37,0,0,0-2.51-29.92L392.6,92A28.41,28.41,0,0,1,402,90.69,36.24,36.24,0,0,1,394.37,120.76Z" style="mix-blend-mode:multiply" fill="url(#b)"/><path fill="#f5f5f5" d="M476,431.79a28,28,0,0,1-39.61,0,28,28,0,0,0-39.62,0,28,28,0,0,1-39.61,0,28,28,0,0,0-39.62,0,28,28,0,0,1-39.61,0,28,28,0,0,0-39.61,0,28,28,0,0,1-39.62,0,28,28,0,0,0-39.61,0,28,28,0,0,1-39.62,0,28,28,0,0,0-39.61,0,28,28,0,0,1-39.61,0c-.1-.1,0,3.71,0-92.26a28,28,0,0,0,39.61,0,28,28,0,0,1,39.61,0,28,28,0,0,0,39.62,0,28,28,0,0,1,39.61,0,28,28,0,0,0,39.62,0,28,28,0,0,1,39.61,0,28,28,0,0,0,39.61,0,28,28,0,0,1,39.62,0,28,28,0,0,0,39.61,0,28,28,0,0,1,39.62,0,28,28,0,0,0,39.61,0C476.1,339.43,476,339,476,431.79Z"/><path fill="#5e6175" d="M434.26 341.65a25 25 0 00-35.37 0 31 31 0 01-43.85 0 25 25 0 00-35.37 0 31.05 31.05 0 01-43.86 0 25 25 0 00-35.37 0 31.05 31.05 0 01-43.86 0 25 25 0 00-35.37 0 31.05 31.05 0 01-43.86 0 25 25 0 00-35.37 0 31.05 31.05 0 01-43.86 0l4.25-4.24a25 25 0 0035.37 0 31 31 0 0143.86 0 25 25 0 0035.37 0 31 31 0 0143.85 0 25 25 0 0035.37 0 31 31 0 0143.86 0 25 25 0 0035.37 0 31 31 0 0143.86 0 25 25 0 0035.37 0 31 31 0 0143.86 0 25 25 0 0035.37 0l4.24 4.24A31.05 31.05 0 01434.26 341.65zM434.26 433.91a25 25 0 00-35.37 0 31 31 0 01-43.85 0 25 25 0 00-35.37 0 31 31 0 01-43.86 0 25 25 0 00-35.37 0 31.05 31.05 0 01-43.86 0 25 25 0 00-35.37 0 31.05 31.05 0 01-43.86 0 25 25 0 00-35.37 0 31 31 0 01-43.86 0l4.25-4.24a25 25 0 0035.37 0 31 31 0 0143.86 0 25 25 0 0035.37 0 31 31 0 0143.85 0 25 25 0 0035.37 0 31 31 0 0143.86 0 25 25 0 0035.37 0 31 31 0 0143.86 0 25 25 0 0035.37 0 31 31 0 0143.86 0 25 25 0 0035.37 0l4.24 4.24A31 31 0 01434.26 433.91z"/><path d="M239.47,397.14a28,28,0,0,1,39.61,0,28,28,0,0,0,39.62,0V374.07a28.27,28.27,0,0,1-39.62,0,28.28,28.28,0,0,0-39.61,0Z" style="mix-blend-mode:multiply" fill="url(#c)"/><path fill="#5e6175" d="M277,376.19a25.36,25.36,0,0,0-35.37,0L237.35,372a31.44,31.44,0,0,1,43.86,0,25.26,25.26,0,0,0,35.37,0l4.24,4.24A31.26,31.26,0,0,1,277,376.19Z"/><path d="M79.75,397.75a28,28,0,0,1,39.61,0V374.68a28.28,28.28,0,0,0-39.61,0Z" style="mix-blend-mode:multiply" fill="url(#d)"/><path fill="#5e6175" d="M117.24,399.87a25,25,0,0,0-35.37,0l-4.24-4.24a31,31,0,0,1,43.85,0Z"/><rect width="6" height="19.8" x="56.18" y="107.76" fill="#5e6175" transform="rotate(-45 59.172 117.65)"/><rect width="19.8" height="6" x="36" y="137.99" fill="#5e6175"/><rect width="6" height="19.8" x="78.3" y="93.95" fill="#5e6175"/><path fill="#e1830e" d="M422.39 227a19.21 19.21 0 0119.22 19.22A19.21 19.21 0 01460.83 227a19.22 19.22 0 01-19.22-19.22A19.22 19.22 0 01422.39 227zM153.6 146.41a9.6 9.6 0 019.6 9.61 9.61 9.61 0 019.61-9.61 9.62 9.62 0 01-9.61-9.61A9.61 9.61 0 01153.6 146.41z"/></g></svg>