<svg xmlns="http://www.w3.org/2000/svg" viewBox="0 0 512 512"><defs><linearGradient id="a" x1="60.62" x2="420.15" y1="305.92" y2="305.92" gradientUnits="userSpaceOnUse"><stop offset="0" stop-color="#a9afc4"/><stop offset="1" stop-color="#d4d8e5"/></linearGradient><linearGradient id="b" x1="317.55" x2="420.15" y1="345.02" y2="345.02" gradientUnits="userSpaceOnUse"><stop offset="0" stop-color="#cacfdd"/><stop offset="1" stop-color="#eef0f1"/></linearGradient></defs><g data-name="Mountain Explode"><path fill="url(#a)" d="M420.15,382.41H60.62L174.53,239.74l14.1,14.11a10.83,10.83,0,0,0,15.87-.6l17.24-20a10.8,10.8,0,0,1,15.85-.59l17.32,17.3a10.84,10.84,0,0,0,15.31,0l4.32-4.32a10.82,10.82,0,0,1,15.31,0,10.82,10.82,0,0,0,15.3,0l3.13-3.12C308.38,242.48,305.17,238.6,420.15,382.41Z"/><polygon points="420.15 382.41 317.93 382.41 317.55 381.77 360.36 307.63 420.15 382.41" style="mix-blend-mode:multiply" fill="url(#b)"/><path fill="#5e6175" d="M271.43 449.81a9.3 9.3 0 1116-6.29A9.32 9.32 0 01271.43 449.81zm6.7-9.76a3.31 3.31 0 00-.06 6.61h0a3.31 3.31 0 10.06-6.61zM321.32 431h0a12.73 12.73 0 1113-12.49A12.71 12.71 0 01321.32 431zm.23-19.45a6.73 6.73 0 106.73 6.85A6.74 6.74 0 00321.55 411.55z"/><rect width="18.53" height="6" x="74.6" y="133.16" fill="#5e6175"/><rect width="18.53" height="6" x="81.25" y="157.38" fill="#5e6175" transform="rotate(-45 90.515 160.388)"/><rect width="6" height="18.53" x="86.36" y="103.12" fill="#5e6175" transform="rotate(-45 89.37 112.382)"/><rect width="18.53" height="6" x="384.94" y="120.06" fill="#5e6175"/><rect width="6" height="18.53" x="384.55" y="138.02" fill="#5e6175" transform="rotate(-45 387.555 147.28)"/><rect width="18.53" height="6" x="379.43" y="96.29" fill="#5e6175" transform="rotate(-45 388.696 99.287)"/><path fill="#5e6175" d="M426.39,385.41h-372l119.9-150.16,16.47,16.47a7.81,7.81,0,0,0,11.47-.42l17.24-20.05a13.82,13.82,0,0,1,20.26-.75L257,247.8a7.84,7.84,0,0,0,11.07,0l4.32-4.32a13.8,13.8,0,0,1,19.55,0,7.82,7.82,0,0,0,11.06,0l5.5-5.5Zm-359.54-6H413.91L308,247l-.76.75a13.81,13.81,0,0,1-19.54,0,7.78,7.78,0,0,0-5.54-2.3h0a7.73,7.73,0,0,0-5.52,2.3L272.34,252a13.84,13.84,0,0,1-19.55,0l-17.32-17.3a7.79,7.79,0,0,0-11.46.43l-17.24,20a13.82,13.82,0,0,1-20.26.75l-11.73-11.72Z"/><path fill="#f5f5f5" d="M204.5,253.25l17.24-20a10.8,10.8,0,0,1,15.85-.59l17.32,17.3a10.84,10.84,0,0,0,15.31,0l4.32-4.32a10.82,10.82,0,0,1,15.31,0,10.82,10.82,0,0,0,15.3,0l3.13-3.12L276.85,203a6.22,6.22,0,0,0-9.27-.52l-4,4a21,21,0,0,1-29.61,0l-.6-.61a8.12,8.12,0,0,0-11.48,0,8.11,8.11,0,0,1-11.49,0,6.22,6.22,0,0,0-9.26.52l-26.61,33.33,14.1,14.11A10.83,10.83,0,0,0,204.5,253.25Z"/><path fill="#5e6175" d="M186.51,256l-16-16,28.29-35.43a9.23,9.23,0,0,1,13.72-.77,5.11,5.11,0,0,0,7.24,0,11.11,11.11,0,0,1,15.73,0l.62.63a18,18,0,0,0,25.35,0l4-4a9.21,9.21,0,0,1,13.73.77l33.1,41.55-5,5a13.81,13.81,0,0,1-19.54,0,7.78,7.78,0,0,0-5.54-2.3h0a7.73,7.73,0,0,0-5.52,2.3L272.34,252a13.84,13.84,0,0,1-19.55,0l-17.32-17.3a7.79,7.79,0,0,0-11.46.43l-17.23,20A13.83,13.83,0,0,1,186.51,256Zm-8-16.44,12.2,12.2a7.66,7.66,0,0,0,5.83,2.3,7.86,7.86,0,0,0,5.65-2.73l17.23-20a13.82,13.82,0,0,1,20.26-.75L257,247.8a7.84,7.84,0,0,0,11.07,0l4.32-4.32a13.8,13.8,0,0,1,19.55,0,7.82,7.82,0,0,0,11.06,0l1.23-1.23L274.5,204.89a3.21,3.21,0,0,0-4.8-.27l-4,4c-8.89,8.87-24,10-34.48-.63a5.13,5.13,0,0,0-7.22,0,11.09,11.09,0,0,1-15.73,0,3.22,3.22,0,0,0-4.79.27Z"/><polygon fill="#f5f5f5" points="440.92 321.01 370.76 321.01 335.68 381.77 370.76 442.53 440.92 442.53 476 381.77 440.92 321.01"/><path fill="#5e6175" d="M442.65,445.53H369l-36.81-63.76L369,318h73.62l36.81,63.76Zm-70.16-6h66.7l33.35-57.76L439.19,324h-66.7l-33.35,57.76Z"/><rect width="42.9" height="6" x="36" y="379.41" fill="#5e6175"/><polygon fill="#e1830e" points="396.49 344.13 396.49 371.65 399.59 388.83 406.41 388.83 406.41 388.84 413.23 388.83 416.34 371.63 416.35 344.09 396.49 344.13"/><rect width="14.91" height="14.91" x="398.96" y="401.1" fill="#e1830e"/><polygon fill="#5e6175" points="170.96 319.74 166.72 315.5 181.46 300.76 181.46 275.99 202.2 251.32 206.8 255.18 187.46 278.18 187.46 303.24 170.96 319.74"/><polygon fill="#5e6175" points="282.28 362.5 276.28 362.5 276.28 346.55 244 314.27 244 273.25 272.37 243.53 276.71 247.67 250 275.65 250 311.79 282.28 344.07 282.28 362.5"/><path fill="#e1830e" d="M352 94.68a24.3 24.3 0 00-42-23.07 31.7 31.7 0 00-35.21 51.33l-22.94 17.25-9.46 40.61h2.08l21.44-29.56 22.84-8.45A40.11 40.11 0 10352 94.68zM207.63 126.58l-22.28-13c11.41-16.14 0-38.85-20.13-38.85A24.62 24.62 0 00143.35 88a15.81 15.81 0 00-17.14 26.39 33.78 33.78 0 1054.72 29.54L195.3 146l26.57 36.06h2.24z"/><path fill="#a9afc4" d="M411.8 193.6h-6v-6h6zm-16 0h-6v-6h6zm-16 0h-6v-6h6zm-16 0h-6v-6h6zm-16 0h-6v-6h6zm-16 0h-6v-6h6zm-16 0h-6v-6h6zm-16 0h-6v-6h6zM412 305h-6v-6h6zm0-16h-6v-6h6zm0-16h-6v-6h6zm0-16h-6v-6h6zm0-16h-6v-6h6zm0-16h-6v-6h6zm0-16h-6v-6h6z"/></g></svg>