<svg xmlns="http://www.w3.org/2000/svg" xmlns:xlink="http://www.w3.org/1999/xlink" viewBox="0 0 512 512"><defs><linearGradient id="a" x1="172.39" x2="237.97" y1="271.19" y2="271.19" gradientUnits="userSpaceOnUse"><stop offset="0" stop-color="#cacfdd"/><stop offset="1" stop-color="#eef0f1"/></linearGradient><linearGradient id="b" x1="242.81" x2="367.35" y1="124.2" y2="124.2" xlink:href="#a"/><linearGradient id="c" x1="202.43" x2="407.73" y1="447.53" y2="447.53" xlink:href="#a"/></defs><g style="isolation:isolate"><rect width="19.96" height="6" x="54.25" y="315.47" fill="#5e6175" transform="rotate(-45 64.236 318.473)"/><rect width="6" height="19.96" x="84.75" y="321.88" fill="#5e6175"/><rect width="19.96" height="6" x="40.32" y="293.16" fill="#5e6175"/><path fill="#5e6175" d="M168.82 402.9a9.8 9.8 0 01-4.4-18.56h0a9.8 9.8 0 114.4 18.56zm-1.71-13.19a3.79 3.79 0 105.1 1.69 3.79 3.79 0 00-5.1-1.69zM131.71 451.23a13.49 13.49 0 1112-19.54A13.49 13.49 0 01131.71 451.23zm0-21a7.48 7.48 0 106.7 4.13A7.49 7.49 0 00131.69 430.25z"/><rect width="205.29" height="30.32" x="202.43" y="424.79" fill="#dee1ec"/><path fill="#dee1ec" d="M367.33,133.3V113.38H242.83V133.3a92.49,92.49,0,0,1-24.07,62c-20.4,22.57-46.37,60.08-46.37,104.83,0,73.72,45.87,124.66,45.87,124.66H391.9s45.87-50.94,45.87-124.66c0-44.75-26-82.26-46.37-104.83A92.49,92.49,0,0,1,367.33,133.3Z"/><path d="M206.05,323.9H174a179,179,0,0,1-1.59-23.77c0-31.79,13.1-59.92,28-81.64l33.25,57.6A31.87,31.87,0,0,1,206.05,323.9Z" style="mix-blend-mode:multiply" fill="url(#a)"/><rect width="152.35" height="29.99" x="228.91" y="83.39" fill="#dee1ec"/><path fill="#5e6175" d="M393.24,427.79H216.92c-8.84-9.82-17.94-24.2-24.26-36.29-10.61-20.33-23.27-52.68-23.27-91.37,0-24.95,8.18-63.75,47.14-106.84a89.37,89.37,0,0,0,23.3-60V110.38h130.5V133.3a89.42,89.42,0,0,0,23.3,60c39,43.1,47.14,81.89,47.14,106.84,0,38.69-12.65,71-23.27,91.37C411,403.89,402,418.12,393.24,427.79Zm-173.6-6H390.53c6.21-7.42,44.24-55.54,44.24-121.66,0-23.9-7.91-61.14-45.59-102.82a95.38,95.38,0,0,1-24.85-64V116.38H245.83V133.3a95.34,95.34,0,0,1-24.85,64C183.3,239,175.39,276.23,175.39,300.13,175.39,366.25,213.42,414.37,219.64,421.79Z"/><path fill="#5e6175" d="M384.26,116.38H225.91v-36H384.26Zm-152.35-6H378.26v-24H231.91Z"/><polygon fill="#5e6175" points="292.13 426.46 287.89 422.21 324.08 386.02 324.08 349.4 368.86 304.63 353.54 289.31 333.73 289.31 314.75 270.33 314.75 202.66 287.46 175.37 287.46 113.38 293.46 113.38 293.46 172.88 320.75 200.17 320.75 267.84 336.21 283.31 356.03 283.31 377.34 304.63 330.08 351.89 330.08 388.5 292.13 426.46"/><polygon fill="#5e6175" points="352.37 286.31 346.37 286.31 346.37 246.21 394.01 198.57 398.25 202.82 352.37 248.69 352.37 286.31"/><path d="M367.35,135H242.81c0-1.61,0,.55,0-21.63h124.5C367.33,135.35,367.32,133.41,367.35,135Z" style="mix-blend-mode:multiply" fill="url(#b)"/><path fill="#f5f5f5" d="M166.89,192.46l52.9,91.63a15.87,15.87,0,0,1-13.74,23.81H100.24a15.87,15.87,0,0,1-13.75-23.81l52.9-91.63A15.87,15.87,0,0,1,166.89,192.46Z"/><path fill="#5e6175" d="M206.05,310.9H100.24a18.87,18.87,0,0,1-16.35-28.31L136.8,191a18.87,18.87,0,0,1,32.69,0l52.9,91.63A18.87,18.87,0,0,1,206.05,310.9ZM142,194l-52.9,91.63a12.87,12.87,0,0,0,11.15,19.31H206.05a12.87,12.87,0,0,0,11.15-19.31L164.29,194A12.87,12.87,0,0,0,142,194Z"/><polygon fill="#e1830e" points="142.75 217.23 142.75 246.03 145.99 264.01 153.12 264.01 153.12 264.02 160.26 264.01 163.52 246.01 163.53 217.19 142.75 217.23"/><rect width="15.6" height="15.6" x="145.33" y="276.85" fill="#e1830e"/><rect width="40.2" height="106.41" x="322.64" y="239.09" fill="#e1830e" rx="19.57" transform="rotate(-45 342.745 292.3)"/><rect width="20.79" height="31.09" x="330.67" y="275.07" fill="#f5f5f5" transform="rotate(-45 341.043 290.605)"/><rect width="205.29" height="15.16" x="202.43" y="439.95" style="mix-blend-mode:multiply" fill="url(#c)"/><path fill="#5e6175" d="M410.73,458.11H199.43V421.79h211.3Zm-205.3-6h199.3V427.79H205.43Z"/><path fill="#a9afc4" d="M436.18 241l-4.24-4.24c1.33-1.34 2.61-2.76 3.81-4.23l4.66 3.78A62.8 62.8 0 01436.18 241zm10.11-13.4l-5.24-2.91a56.06 56.06 0 002.49-5.11l5.52 2.36A60.42 60.42 0 01446.29 227.64zm6-15.65l-5.85-1.36a53.86 53.86 0 001-5.6l6 .75C453.18 207.85 452.8 209.94 452.33 212zm1.57-16.57h-6v-6h6zm0-16h-6v-6h6zm-297.76-7.55h-6v-6h6zm297.76-8.45h-6v-6h6zm-297.76-7.55h-6v-6h6zm297.76-8.45h-6v-6h6zm-297.76-7.55h-6v-6h6zm297.76-8.45h-6v-6h6zm-297.76-7.55h-6v-6h6zm297.76-8.45h-6c0-1.82 0-3.35-.19-5.74l6-.5C453.91 111.81 453.9 113.61 453.9 115.42zm-297.41-7.2l-6-.67c.24-2.09.59-4.18 1-6.22l5.86 1.29A55.38 55.38 0 00156.49 108.22zm289.59-7.86a53.89 53.89 0 00-1.74-5.4L450 92.82a61.66 61.66 0 011.93 6zM160.25 93.59L154.7 91.3a60.54 60.54 0 012.71-5.69l5.28 2.85A54.66 54.66 0 00160.25 93.59zm280-7.15c-1-1.61-2-3.2-3.17-4.72l4.8-3.6a63.06 63.06 0 013.52 5.24zM167.9 80.57l-4.7-3.73a60.26 60.26 0 014.17-4.73l4.29 4.19A54.4 54.4 0 00167.9 80.57zm262.82-5.9A54.27 54.27 0 00426.39 71L430 66.22a62.29 62.29 0 014.81 4.07zM178.83 70.12l-3.5-4.86a60.52 60.52 0 015.3-3.42l3 5.21C182 68 180.37 69 178.83 70.12zm239.56-4.18a52.29 52.29 0 00-5.18-2.34L415.39 58a57.12 57.12 0 015.75 2.6zM192.21 63.08l-2-5.65a60.73 60.73 0 016-1.81l1.43 5.82A53.28 53.28 0 00192.21 63.08zm211.92-2.14a55.52 55.52 0 00-5.62-.82l.56-6a59.36 59.36 0 016.24.91zM207 60l-.4-6c2.35-.16 3.86-.13 6.2-.13v6C210.52 59.89 209.14 59.86 207 60zm181.8-.11h-6v-6h6zm-16 0h-6v-6h6zm-16 0h-6v-6h6zm-16 0h-6v-6h6zm-16 0h-6v-6h6zm-16 0h-6v-6h6zm-16 0h-6v-6h6zm-16 0h-6v-6h6zm-16 0h-6v-6h6zm-16 0h-6v-6h6zm-16 0h-6v-6h6zM404.91 272.8l-4.24-4.24 4.24-4.24 4.24 4.24zm11.31-11.31L412 257.25l4.24-4.24 4.25 4.24z"/><rect width="72.6" height="6" x="407.73" y="452.11" fill="#5e6175"/></g></svg>