<svg xmlns="http://www.w3.org/2000/svg" xmlns:xlink="http://www.w3.org/1999/xlink" viewBox="0 0 512 512"><defs><linearGradient id="a" x1="122.78" x2="151.82" y1="128.54" y2="128.54" gradientUnits="userSpaceOnUse"><stop offset="0" stop-color="#a9afc4"/><stop offset="1" stop-color="#d4d8e5"/></linearGradient><linearGradient id="b" x1="195.19" x2="219.63" y1="429.24" y2="429.24" xlink:href="#a"/><linearGradient id="c" x1="336.66" x2="410.19" y1="157.51" y2="157.51" gradientUnits="userSpaceOnUse"><stop offset="0" stop-color="#cacfdd"/><stop offset="1" stop-color="#eef0f1"/></linearGradient><linearGradient id="d" x1="116.45" x2="116.45" y1="241.37" y2="400.56" xlink:href="#a"/></defs><g data-name="Damaged Product"><path fill="#5e6175" d="M466 221.83a11.68 11.68 0 1111.68-11.68A11.69 11.69 0 01466 221.83zm0-17.36a5.68 5.68 0 105.68 5.68A5.69 5.69 0 00466 204.47zM436.21 266.74a9.12 9.12 0 119.12-9.12A9.13 9.13 0 01436.21 266.74zm0-12.24a3.12 3.12 0 103.12 3.12A3.12 3.12 0 00436.21 254.5z"/><polygon fill="#f5f5f5" points="396.33 207.34 410.19 244.68 410.19 442.75 219.63 442.75 219.63 415.73 195.19 442.75 96.18 442.75 96.18 398.79 118.81 355.91 118.81 246.04 96.18 196.78 96.18 114.29 122.78 114.29 151.82 142.79 151.82 114.29 410.19 114.29 410.19 146 396.33 186.53 396.33 207.34"/><polygon fill="#e1830e" points="210.41 114.29 210.41 148.78 220.29 158.66 230.22 148.73 240.53 159.03 250.27 148.78 260.16 158.66 270.09 148.73 280.39 159.03 290.14 149.28 290.14 114.29 210.41 114.29"/><polygon points="122.78 114.29 151.82 114.29 151.82 142.79 122.78 114.29" style="mix-blend-mode:multiply" fill="url(#a)"/><path fill="#5e6175" d="M154.82,149.94l-39.38-38.65h39.38Zm-24.7-32.65,18.7,18.36V117.29Z"/><polygon points="195.19 442.75 219.63 442.75 219.63 415.73 195.19 442.75" style="mix-blend-mode:multiply" fill="url(#b)"/><rect width="24.43" height="6" x="195.19" y="439.75" fill="#5e6175"/><path d="M410.19,114.29V146l-13.86,40.53v14.21a76.52,76.52,0,0,1-58.73-86.45Z" style="mix-blend-mode:multiply" fill="url(#c)"/><path d="M136.76,283.29V359L96.18,398.79h0l22.63-42.89V246C79.23,159.91,95.52,195.38,136.76,283.29Z" style="mix-blend-mode:multiply" fill="url(#d)"/><path fill="#5e6175" d="M413.19,445.75H216.63V423.52l-20.1,22.23H93.18V398l22.63-42.88V246.69L93.18,197.44V111.29H124l24.82,24.36V111.29H413.19v35.2L399.33,187V206.8l13.86,37.33Zm-190.56-6H407.19V245.21l-13.86-37.33V186l13.86-40.53V117.29H154.82v32.65l-33.27-32.65H99.18v78.83l22.63,49.26V356.65L99.18,399.53v40.22h94.68l28.77-31.81Z"/><rect width="79.75" height="15.87" x="296.15" y="398.19" fill="#5e6175"/><circle cx="413.09" cy="126.17" r="62.91" fill="#f5f5f5"/><path fill="#5e6175" d="M413.09,192.08A65.91,65.91,0,1,1,479,126.17,66,66,0,0,1,413.09,192.08Zm0-125.82A59.91,59.91,0,1,0,473,126.17,60,60,0,0,0,413.09,66.26Z"/><polygon fill="#e1830e" points="401.05 82.61 401.05 115.98 404.81 136.82 413.07 136.82 413.07 136.84 421.35 136.82 425.12 115.96 425.13 82.56 401.05 82.61"/><rect width="18.08" height="18.08" x="404.04" y="151.7" fill="#e1830e"/><path fill="#5e6175" d="M314.07 345.48L296.15 363h10.3v21.58h15.24V363H332zM358 345.48L340.07 363h10.3v21.58h15.24V363h10.3z"/><polygon fill="#5e6175" points="163.16 193.89 148.82 181.06 148.82 142.79 154.82 142.79 154.82 178.38 167.16 189.42 163.16 193.89"/><path fill="#5e6175" d="M62.06 387.39a7 7 0 00-9.85 0 13 13 0 01-18.33 0l4.24-4.25a7 7 0 009.85 0 13 13 0 0118.33 0 7 7 0 009.85 0l4.24 4.25A13 13 0 0162.06 387.39zM63.48 347.07a7 7 0 00-7-7 13 13 0 01-13-13h6a7 7 0 007 7 13 13 0 0113 13 7 7 0 007 7v6A13 13 0 0163.48 347.07zM38.42 451.74v-6a7 7 0 007-7 13 13 0 0113-13 7 7 0 007-7h6a12.94 12.94 0 01-13 13 7 7 0 00-7 7A13 13 0 0138.42 451.74z"/><polygon fill="#5e6175" points="222.63 415.73 216.63 415.73 216.63 389.44 244.3 361.76 244.3 326.29 257.63 311.05 262.14 315 250.3 328.54 250.3 364.25 222.63 391.92 222.63 415.73"/><path fill="#a9afc4" d="M358.8 70.08h-6v-6h6zm-16 0h-6v-6h6zm-16 0h-6v-6h6zm-16 0h-6v-6h6zm-16 0h-6v-6h6zm-16 0h-6v-6h6zm-16 0h-6v-6h6zm-16 0h-6v-6h6zm-16 0h-6v-6h6zm-16 0h-6v-6h6zm-16 0h-6v-6h6zm-16 0h-6v-6h6zM182.87 102.4h-6v-6h6zm0-16h-6v-6h6z"/></g></svg>