<svg xmlns="http://www.w3.org/2000/svg" viewBox="0 0 512 512"><defs><linearGradient id="a" x1="202.29" x2="202.29" y1="243.4" y2="310.53" gradientUnits="userSpaceOnUse"><stop offset="0" stop-color="#cacfdd"/><stop offset="1" stop-color="#eef0f1"/></linearGradient></defs><g style="isolation:isolate"><polygon fill="#dee1ec" points="86.94 259.45 113.47 449.04 291.11 449.04 317.64 259.45 86.94 259.45"/><polygon points="314.24 283.78 317.64 259.45 86.94 259.45 90.35 283.78 314.24 283.78" style="mix-blend-mode:multiply" fill="url(#a)"/><path fill="#dee1ec" d="M333.53,244.8v14.65H71.05V244.8a12.24,12.24,0,0,1,12.24-12.24h1a19.54,19.54,0,0,0,37.13,0h12.9a28.64,28.64,0,0,0,41.35,0H321.29A12.24,12.24,0,0,1,333.53,244.8Z"/><polyline fill="#dee1ec" points="460.32 149.98 337.23 149.98 337.23 109.67 460.32 109.67"/><path fill="#a9afc4" d="M227.05,176.37H189.82A65.23,65.23,0,0,1,255,111.21h62.66v37.23H255A28,28,0,0,0,227.05,176.37Z"/><rect width="19.58" height="63.84" x="317.64" y="98.51" fill="#e1830e"/><path fill="#f5f5f5" d="M280,73.61v37.6H265v-38A14,14,0,0,0,280,73.61Z"/><path fill="#dee1ec" d="M269.16 75.13l-36.53 5.22a14.76 14.76 0 01-17.76-14.44V58.06a14.76 14.76 0 0117.42-14.51L269 48.19a14 14 0 00.2 26.94zM330.7 58.06v7.85A14.75 14.75 0 01313 80.35l-36.53-5.22a14 14 0 00.18-26.94l36.68-4.64A14.76 14.76 0 01330.7 58.06z"/><polygon fill="#5e6175" points="460.32 152.98 334.23 152.98 334.23 106.67 460.32 106.67 460.32 112.67 340.23 112.67 340.23 146.98 460.32 146.98 460.32 152.98"/><path fill="#5e6175" d="M230.05,179.37H186.82v-3A68.24,68.24,0,0,1,255,108.21h65.66v43.23H255a25,25,0,0,0-24.93,24.93Zm-37.16-6h31.3A31,31,0,0,1,255,145.44h59.66V114.21H255A62.24,62.24,0,0,0,192.89,173.37Z"/><path fill="#5e6175" d="M340.22 165.35H314.64V95.51h25.58zm-19.58-6h13.58V101.51H320.64zM283 114.21H262V67.56l4.68 3.17a11 11 0 0011.79.31L283 68.27zm-15-6h9V78.08a17.19 17.19 0 01-9-.17z"/><path fill="#5e6175" d="M229.61,83.67a17.77,17.77,0,0,1-17.74-17.76V58.06a17.76,17.76,0,0,1,20.87-17.48L284,47.07l-14.23,4a11,11,0,0,0,.16,21.15L284.1,76C226.1,84.32,231.12,83.67,229.61,83.67Zm0-37.37a11.77,11.77,0,0,0-11.76,11.76v7.85A11.77,11.77,0,0,0,232,77.42c.3-.06-1.2.16,28.47-4.08a17,17,0,0,1-.17-23.22C227.82,46,230.51,46.3,229.63,46.3Z"/><path fill="#5e6175" d="M316 83.67c-1.6 0 1.76.4-54.42-7.64l14.1-3.8a11 11 0 00.15-21.15l-14.23-4 51.27-6.49A17.77 17.77 0 01333.7 58.06v7.85A17.77 17.77 0 01316 83.67zM285.07 73.34l28.48 4.08A11.76 11.76 0 00327.7 65.91V58.06A11.76 11.76 0 00313.82 46.5l-28.57 3.62A17 17 0 01285.07 73.34zM129.67 147.09A10.28 10.28 0 11140 136.82 10.29 10.29 0 01129.67 147.09zm0-14.55a4.28 4.28 0 104.28 4.28A4.28 4.28 0 00129.67 132.54zM392.87 249a14.74 14.74 0 1114.74-14.74A14.76 14.76 0 01392.87 249zm0-23.48a8.74 8.74 0 108.74 8.74A8.75 8.75 0 00392.87 225.53z"/><path fill="#f5f5f5" d="M384.47,435.14a13.9,13.9,0,0,0-10.36-13.43,16.28,16.28,0,1,0-31,6.47,21.29,21.29,0,0,0-17,20.86l45.61-.06A13.89,13.89,0,0,0,384.47,435.14Z"/><path fill="#5e6175" d="M323.07,452v-3a24.37,24.37,0,0,1,16.12-22.88,19.29,19.29,0,1,1,37.87-6.61A16.88,16.88,0,0,1,371.69,452ZM357.84,408a13.29,13.29,0,0,0-12,18.95l1.64,3.46-3.75.76A18.33,18.33,0,0,0,329.32,446l42.23,0a10.88,10.88,0,0,0,1.8-21.37L371,424l.07-2.39A13.29,13.29,0,0,0,357.84,408Z"/><rect width="379.41" height="6" x="72.37" y="446.04" fill="#5e6175"/><path fill="#f5f5f5" d="M61.37 436.45a9.69 9.69 0 01-9.69-9.68 33 33 0 012.7-13.06l7-16.2h0l7 16.2a33 33 0 012.7 13.06A9.68 9.68 0 0161.37 436.45zM371.44 360.66a9.68 9.68 0 01-9.68-9.68 33 33 0 012.69-13.06l7-16.2h0l7 16.2a33 33 0 012.7 13.06A9.68 9.68 0 01371.44 360.66z"/><path fill="#5e6175" d="M371.44,363.66A12.7,12.7,0,0,1,358.76,351a35.82,35.82,0,0,1,2.94-14.25l9.74-22.58,9.75,22.58A35.82,35.82,0,0,1,384.13,351,12.7,12.7,0,0,1,371.44,363.66Zm0-34.37-4.23,9.82A29.72,29.72,0,0,0,364.76,351a6.69,6.69,0,0,0,13.37,0,29.72,29.72,0,0,0-2.45-11.87Z"/><path fill="#f5f5f5" d="M322.62,213.33H183a28.66,28.66,0,0,0-56.12,0H85.63a34,34,0,0,0-33.95,33.95V351.86a9.92,9.92,0,0,0,9,10,9.7,9.7,0,0,0,10.34-9.67V244.8a12.23,12.23,0,0,1,12.23-12.24h1a19.54,19.54,0,0,0,37.13,0h12.9a28.64,28.64,0,0,0,41.35,0c.1-.1,145.78,0,145.63,0a12.24,12.24,0,0,1,12.24,12.24V287A9.72,9.72,0,0,0,353,287V243.68A30.35,30.35,0,0,0,322.62,213.33Z"/><path fill="#5e6175" d="M293.72,452H110.86L83.49,256.45h237.6Zm-177.64-6H288.5l25.69-183.59H90.39Z"/><path fill="#5e6175" d="M336.53 262.46H68.05V244.8a15.26 15.26 0 0115.24-15.24h3.16l.68 2.06a16.54 16.54 0 0031.43 0l.68-2.06h16.35l.89.92a25.61 25.61 0 0037 0l.89-.92H321.29a15.26 15.26 0 0115.24 15.24zm-262.48-6H330.53V244.8a9.25 9.25 0 00-9.24-9.24H176.9a31.63 31.63 0 01-43.83 0h-9.6a22.54 22.54 0 01-41.22.06 9.25 9.25 0 00-8.2 9.18zM61.37 439.45a12.7 12.7 0 01-12.69-12.68 35.82 35.82 0 012.94-14.25l9.75-22.58 9.74 22.58a35.66 35.66 0 013 14.25A12.71 12.71 0 0161.37 439.45zm0-34.37l-4.24 9.82a29.89 29.89 0 00-2.45 11.87 6.69 6.69 0 0013.38 0A29.73 29.73 0 0065.6 414.9z"/><path fill="#5e6175" d="M61.38,364.88a12.86,12.86,0,0,1-12.7-13V247.28a37,37,0,0,1,36.95-36.95h39a31.66,31.66,0,0,1,60.81,0H322.62A33.39,33.39,0,0,1,356,243.68V287a12.72,12.72,0,0,1-25.44,0V244.8a9.26,9.26,0,0,0-9.24-9.24H176.9a31.62,31.62,0,0,1-43.83,0h-9.6a22.54,22.54,0,0,1-41.22.06,9.24,9.24,0,0,0-8.19,9.18V352.19A12.69,12.69,0,0,1,61.38,364.88ZM85.63,216.33a31,31,0,0,0-30.95,30.95V351.86a6.72,6.72,0,0,0,11.26,5.21,6.64,6.64,0,0,0,2.12-4.88V244.8a15.25,15.25,0,0,1,15.23-15.24h3.16l.68,2.07a16.54,16.54,0,0,0,31.43,0l.68-2.07h16.35l.88.93a25.64,25.64,0,0,0,37,0l.89-.93H321.29a15.26,15.26,0,0,1,15.24,15.24V287A6.72,6.72,0,0,0,350,287V243.68a27.38,27.38,0,0,0-27.35-27.35h-142l-.49-2.39a25.66,25.66,0,0,0-50.25,0l-.5,2.39Z"/><circle cx="202.33" cy="416.2" r="67.1" fill="#f5f5f5"/><path fill="#5e6175" d="M202.33,486.3a70.1,70.1,0,1,1,70.1-70.1A70.18,70.18,0,0,1,202.33,486.3Zm0-134.19a64.1,64.1,0,1,0,64.1,64.09A64.16,64.16,0,0,0,202.33,352.11Z"/><rect width="75.46" height="25.55" x="164.7" y="403.43" fill="#e1830e" transform="rotate(-45 202.427 416.202)"/><rect width="25.55" height="75.46" x="189.65" y="378.47" fill="#e1830e" transform="rotate(-45 202.427 416.202)"/><circle cx="272.78" cy="61.63" r="13.98" fill="#f5f5f5"/><path fill="#5e6175" d="M272.78,78.61a17,17,0,1,1,17-17A17,17,0,0,1,272.78,78.61Zm0-28a11,11,0,1,0,11,11A11,11,0,0,0,272.78,50.65Z"/><path fill="#a9afc4" d="M124.48,384.3,118.92,382a52.7,52.7,0,0,1,2.57-5.72l5.32,2.76A46.17,46.17,0,0,0,124.48,384.3Zm153.73-6.84c-.93-1.69-1.92-3.37-3-5l5.06-3.23c1.1,1.72,2.17,3.52,3.16,5.33Zm-146.47-6.68-5-3.35c1.15-1.7,2.37-3.39,3.64-5l4.74,3.68C134,367.61,132.82,369.19,131.74,370.78Zm137.86-6.14c-1.21-1.5-2.49-3-3.79-4.38l4.39-4.08c1.4,1.51,2.77,3.08,4.07,4.69ZM141.47,358.8l-4.3-4.19c1.45-1.48,3-2.92,4.47-4.29l4,4.46C144.23,356.06,142.82,357.42,141.47,358.8Zm117.38-5.24c-1.46-1.26-3-2.48-4.51-3.63l3.6-4.8c1.64,1.23,3.27,2.54,4.83,3.88Zm-105.66-4.82-3.49-4.88c1.68-1.2,3.42-2.36,5.17-3.43l3.15,5.1C156.39,346.54,154.76,347.62,153.19,348.74Zm93.11-4.16c-1.66-1-3.38-1.91-5.09-2.77l2.68-5.36c1.83.91,3.67,1.91,5.45,2.95Zm-79.79-3.64L164,335.51c1.86-.88,3.78-1.7,5.7-2.45l2.18,5.59C170,339.35,168.25,340.12,166.51,340.94ZM232.34,338c-1.81-.66-3.66-1.26-5.5-1.8l1.66-5.76c2,.57,4,1.22,5.9,1.92ZM181,335.66l-1.54-5.81c2-.52,4-1,6.05-1.38l1.14,5.9C184.78,334.73,182.87,335.16,181,335.66Zm36.4-1.61c-1.89-.32-3.82-.59-5.74-.78l.61-6c2,.21,4.11.49,6.14.83Zm-21.18-1-.46-6c2-.16,4.13-.25,6.19-.27l.06,6C200.1,332.85,198.15,332.93,196.24,333.08Z"/></g></svg>