<svg xmlns="http://www.w3.org/2000/svg" xmlns:xlink="http://www.w3.org/1999/xlink" viewBox="0 0 512 512"><defs><linearGradient id="a" x1="144.64" x2="247.62" y1="216.67" y2="216.67" gradientUnits="userSpaceOnUse"><stop offset="0" stop-color="#cacfdd"/><stop offset="1" stop-color="#eef0f1"/></linearGradient><linearGradient id="b" x1="317.53" x2="372.98" y1="152.93" y2="152.93" xlink:href="#a"/><linearGradient id="c" x1="81.22" x2="423.68" y1="390.95" y2="390.95" xlink:href="#a"/><linearGradient id="d" x1="197.4" x2="307.47" y1="411.16" y2="411.16" xlink:href="#a"/></defs><g data-name="No Notification"><path fill="#5e6175" d="M415.14 449.16a12.46 12.46 0 114-24.25h0a12.46 12.46 0 01-4 24.25zm0-18.92a6.46 6.46 0 106.1 8.54A6.47 6.47 0 00415.17 430.24zM353 468.69a9.57 9.57 0 1117.64-1.14A9.58 9.58 0 01353 468.69zm8.59-7.79a3.57 3.57 0 103.37 4.71A3.57 3.57 0 00361.59 460.9z"/><path fill="#a9afc4" d="M55.78,411.16h-6v-6h6Zm0-16h-6v-6h6Zm0-16h-6v-6h6Zm0-16h-6v-6h6Zm0-16h-6v-6h6Zm0-16h-6v-6h6Zm0-16h-6v-6h6Zm0-16h-6v-6h6Zm0-16h-6v-6h6Zm0-16h-6v-6h6Zm0-16h-6v-6h6Zm0-16h-6v-6h6Z"/><path fill="#f5f5f5" d="M404.25,361.81H100.64s31.28-15.43,31.28-52.41V183.75a120.53,120.53,0,0,1,241.06,0V309.4C373,346.38,404.25,361.81,404.25,361.81Z"/><path d="M212.27,91.22a100.82,100.82,0,0,0-60.66,92.53V309.4a77.5,77.5,0,0,1-7,32.73h67.63Z" style="mix-blend-mode:multiply" fill="url(#a)"/><path d="M373,183.75v31.31c-49.91-19.36-70.28-78.62-43.8-124.26A120.28,120.28,0,0,1,373,183.75Z" style="mix-blend-mode:multiply" fill="url(#b)"/><path fill="#f5f5f5" d="M423.68,381.24a19.43,19.43,0,0,1-19.43,19.42H100.64a19.42,19.42,0,1,1,0-38.84H404.25A19.42,19.42,0,0,1,423.68,381.24Z"/><path d="M423.68,381.24a19.43,19.43,0,0,1-19.43,19.42H100.64a19.42,19.42,0,0,1-19.42-19.42Z" style="mix-blend-mode:multiply" fill="url(#c)"/><path fill="#5e6175" d="M307.47,400.66v9.24a32.78,32.78,0,0,1-32.76,32.76H230.19a32.78,32.78,0,0,1-32.76-32.76v-9.24Z"/><path fill="#f5f5f5" d="M272.74,56.29v8.65a121.23,121.23,0,0,0-40.58,0V56.29a20.29,20.29,0,0,1,40.58,0Z"/><path fill="#5e6175" d="M87.78,364.82l11.54-5.69c1.2-.6,29.6-15.13,29.6-49.72V183.75a123.53,123.53,0,0,1,247.06,0V309.41c0,34.59,28.4,49.12,29.61,49.72L417,364.82Zm22.88-6H394.24C384.46,351.15,370,335.4,370,309.41V183.75a117.53,117.53,0,0,0-235.06,0V309.41C134.92,335.4,120.43,351.15,110.66,358.82Z"/><path fill="#5e6175" d="M275.74 68.49l-3.51-.59a118.38 118.38 0 00-39.57 0l-3.5.59V56.29a23.29 23.29 0 0146.58 0zm-6-7V56.29a17.29 17.29 0 00-34.58 0v5.15A124 124 0 01269.74 61.44zM404.25 403.66H100.64a22.42 22.42 0 110-44.84H404.25a22.42 22.42 0 010 44.84zM100.64 364.82a16.42 16.42 0 100 32.84H404.25a16.42 16.42 0 000-32.84z"/><path d="M307.47,400.66v9.24a32.42,32.42,0,0,1-2.19,11.76H199.62c-2.65-6.8-2.19-11.5-2.19-21Z" style="mix-blend-mode:multiply" fill="url(#d)"/><circle cx="404.25" cy="134.17" r="69.23" fill="#f5f5f5"/><path fill="#5e6175" d="M404.25,206.39a72.23,72.23,0,1,1,72.23-72.22A72.3,72.3,0,0,1,404.25,206.39Zm0-138.45a66.23,66.23,0,1,0,66.23,66.23A66.3,66.3,0,0,0,404.25,67.94Z"/><circle cx="404.25" cy="162.68" r="7.39" fill="#e1830e"/><path fill="#e1830e" d="M356.17 121l6.55-7.34c8 7.15 17.45 7.3 25.64 0l6.55 7.34C383.1 131.5 368.05 131.56 356.17 121zM411.77 121l6.55-7.34c8 7.15 17.46 7.3 25.64 0l6.55 7.34C438.7 131.5 423.65 131.56 411.77 121z"/><polygon fill="#e1830e" points="82.35 434.84 52.13 465.06 81.71 465.06 81.71 476 38.85 476 38.85 462.88 68.5 433.21 38.52 433.21 38.52 422.28 82.35 422.28 82.35 434.84"/><polygon fill="#e1830e" points="94 475.57 94 466.23 110.06 450.16 93.8 450.16 93.8 441.48 122.02 441.48 122.02 450.49 105.62 466.89 121.64 466.89 121.64 475.57 94 475.57"/><polygon fill="#e1830e" points="134.71 475.57 134.71 466.23 150.77 450.16 134.52 450.16 134.52 441.48 162.73 441.48 162.73 450.49 146.33 466.89 162.35 466.89 162.35 475.57 134.71 475.57"/><circle cx="180.16" cy="470.65" r="4.92" fill="#e1830e"/><circle cx="201.43" cy="470.65" r="4.92" fill="#e1830e"/><rect width="6" height="19.56" x="113.49" y="80.79" fill="#5e6175" transform="rotate(-45 116.482 90.562)"/><rect width="19.56" height="6" x="93.59" y="110.62" fill="#5e6175"/><rect width="6" height="19.56" x="135.35" y="67.14" fill="#5e6175"/><path fill="#a9afc4" d="M121 235.44h-6v-6h6zm-16 0H99v-6h6zm-16 0H83v-6h6zm-16 0H67v-6h6zM245.82 235.44h-6v-6h6zm-16 0h-6v-6h6zm-16 0h-6v-6h6zm-16 0h-6v-6h6zm-16 0h-6v-6h6zm-16 0h-6v-6h6zm-16 0h-6v-6h6z"/></g></svg>